<svg version="1.1" id="Layer_1" xmlns="http://www.w3.org/2000/svg" xmlns:xlink="http://www.w3.org/1999/xlink" x="0px" y="0px"
	 width="100%" viewBox="0 0 1024 1024" enable-background="new 0 0 1024 1024" xml:space="preserve">
<path fill="#000000" opacity="1.000000" stroke="none" 
	d="
M329.929382,521.540894 
	C327.960083,521.278625 326.187134,521.718445 324.845581,520.435852 
	C324.367737,518.924194 325.671631,518.868713 326.445007,518.386658 
	C329.045441,516.765564 328.631378,515.170654 326.148987,514.076050 
	C323.571625,512.939636 320.837952,512.154236 318.163269,511.242828 
	C313.755310,509.740784 309.247253,508.520721 305.971619,504.787811 
	C299.681030,497.619049 300.635468,490.698059 309.273743,482.325623 
	C308.371857,479.466827 304.642365,478.569336 304.142517,475.324890 
	C313.372009,476.513641 322.127197,476.133789 329.267090,469.249786 
	C331.114777,467.468384 332.532043,465.430542 331.567871,462.648529 
	C330.330017,461.714355 329.685669,462.847717 328.993591,463.385468 
	C324.420502,466.938965 319.508636,468.430115 313.526581,469.072418 
	C308.862732,469.573242 305.398224,467.973297 301.556854,466.947174 
	C297.315460,465.814178 293.049408,467.338867 288.756805,465.686707 
	C281.100739,462.740082 277.450348,456.870270 279.388794,448.768097 
	C279.666473,447.607452 278.477234,446.518677 279.665161,445.197357 
	C282.621460,445.567169 285.707214,451.117157 288.996552,445.477509 
	C288.407104,442.865356 286.292328,442.563934 284.079773,442.317535 
	C279.100433,441.763000 275.466370,438.892761 272.489166,435.162354 
	C268.947998,430.725403 270.831909,426.443024 273.490051,422.436340 
	C268.830444,419.324341 268.248901,419.507141 267.255615,424.262970 
	C265.389771,423.596313 263.503113,423.019409 261.695984,422.254639 
	C258.701385,420.987305 257.353516,418.490875 257.832611,415.427948 
	C258.330963,412.241791 260.141663,409.762421 263.757141,409.732361 
	C271.015076,409.672028 276.905609,413.748230 283.127838,416.642395 
	C285.151215,417.583527 284.970093,420.077850 283.734985,421.957672 
	C282.735901,423.478271 281.502380,424.846466 280.352997,426.266174 
	C279.374908,427.474335 279.481842,428.709869 280.188110,429.982391 
	C280.898376,431.262177 282.019958,431.239197 283.224854,430.936157 
	C288.399506,429.634552 292.409241,432.013916 296.722931,434.524597 
	C309.284332,441.835663 322.701050,445.163574 336.738159,439.367676 
	C342.332336,437.057861 347.614899,433.520782 352.331329,429.674255 
	C358.574097,424.582916 365.228943,422.894501 372.817963,424.882538 
	C377.357422,426.071777 381.544586,425.860260 385.988770,424.235718 
	C391.895935,422.076385 398.438354,422.004974 404.154083,419.005615 
	C405.495087,418.301880 407.180389,417.919861 407.284546,416.176422 
	C407.411499,414.051239 405.462280,413.629456 403.966949,412.994354 
	C401.683655,412.024597 399.108398,411.733612 397.148254,410.015381 
	C393.771057,407.055023 394.255066,402.925385 398.361786,401.211609 
	C402.092407,399.654846 405.866211,400.354431 409.526855,401.747070 
	C409.980225,401.919556 410.752838,402.310455 410.728363,402.526581 
	C410.135803,407.758118 414.548035,408.131805 417.632294,409.983948 
	C420.259735,411.561737 421.218933,414.083130 420.447021,417.322479 
	C419.275482,422.239014 423.405762,427.269440 428.419739,426.816162 
	C435.759857,426.152557 442.934082,428.389679 450.331299,427.459900 
	C455.883942,426.761902 459.957092,424.316772 460.768158,419.088257 
	C462.774048,406.157532 471.137848,400.929047 482.778625,397.944733 
	C489.125244,396.317688 494.954407,392.639557 501.669922,391.863129 
	C503.969666,391.597229 506.420746,390.489960 508.569092,391.514618 
	C515.315918,394.732483 522.207520,394.402374 529.451172,393.914398 
	C535.277100,393.522003 541.329407,394.738495 547.117920,395.994110 
	C554.143677,397.518188 558.874084,401.989075 560.468201,409.245270 
	C561.197937,412.567108 562.666443,415.491669 564.542480,418.291962 
	C566.968079,421.912537 570.239563,423.742371 574.618774,423.635895 
	C582.774963,423.437592 590.192139,425.599487 596.106934,431.372650 
	C607.625610,442.615570 621.369812,442.609009 635.759644,439.587433 
	C637.178467,439.289520 638.576721,438.522705 639.788025,437.688232 
	C642.038574,436.137909 642.149719,433.811676 641.525696,431.404663 
	C640.867371,428.865417 639.037659,428.188782 636.588318,428.195984 
	C631.381958,428.211334 626.325867,429.196167 621.270447,430.252472 
	C615.449890,431.468719 610.303528,429.923615 606.014038,426.000122 
	C602.272034,422.577362 603.626892,417.888977 608.552856,416.586853 
	C611.979675,415.681030 615.437988,415.414398 618.872620,416.558868 
	C619.220581,422.750641 619.586243,423.233093 626.002625,421.629852 
	C635.973816,419.138397 645.842529,417.229675 655.866577,421.275421 
	C658.426147,422.308441 660.372131,420.678253 662.199341,419.248047 
	C664.578186,417.386108 666.428772,417.323181 668.590698,419.812714 
	C670.438049,421.939941 672.887695,423.585938 676.346619,422.219330 
	C677.555359,420.825623 675.353638,417.125732 679.219727,417.161621 
	C682.324097,417.190460 684.743103,418.025116 685.425110,421.596039 
	C685.829285,423.712158 687.673706,423.764038 689.412964,423.651184 
	C704.305725,422.684662 718.798340,425.483551 733.254578,428.435059 
	C741.105530,430.037964 748.615845,426.913879 756.360535,427.128754 
	C757.742493,427.167114 759.224609,425.968384 759.570984,424.335663 
	C759.981384,422.401215 758.317139,421.877991 757.037659,421.120758 
	C755.136963,419.995880 753.137512,419.320801 750.900330,419.251373 
	C748.881348,419.188721 746.931213,418.713013 745.246826,417.506378 
	C743.638367,416.354095 742.733887,414.738770 743.019958,412.792114 
	C743.347290,410.564850 745.263672,410.170197 747.115417,409.798645 
	C751.674500,408.883972 756.313171,411.386749 761.125122,408.739288 
	C759.567444,412.702698 759.567444,412.702698 753.030518,413.695984 
	C756.990540,415.474243 759.026123,419.065979 763.929871,418.088745 
	C767.362244,417.404724 770.614136,426.664948 767.483276,429.043762 
	C762.306335,432.977142 758.224609,439.048706 750.685181,439.195374 
	C743.530945,439.334503 736.336182,440.116730 729.236755,439.583923 
	C722.071106,439.046204 716.426086,442.667328 710.228882,444.831177 
	C708.825745,445.321075 707.810913,446.828491 708.470947,448.524384 
	C709.197144,450.390381 711.169556,450.027191 712.673889,450.596649 
	C722.637146,454.368011 733.574097,456.369873 740.646973,465.562439 
	C744.592468,470.690460 744.936829,480.460144 740.762878,484.578827 
	C737.257446,488.037689 732.169617,488.740692 727.619141,489.850708 
	C723.182129,490.932983 719.542664,493.839752 715.030457,494.515228 
	C714.164734,494.644836 713.486206,495.364807 713.645813,496.289703 
	C713.742493,496.850037 714.590637,497.812653 714.686218,497.764801 
	C719.117981,495.548767 721.191101,500.517181 726.316284,501.184967 
	C720.552063,504.804413 718.430603,510.219177 714.427429,514.070679 
	C711.782532,516.615417 706.175476,516.145996 704.245178,512.677734 
	C701.067017,506.967255 694.243286,507.341400 690.871948,502.534027 
	C689.198608,504.490082 691.500793,505.484772 690.517944,507.143616 
	C684.606873,506.410858 683.718811,510.394897 684.124817,515.101807 
	C681.111450,516.581360 678.207520,514.470947 675.264832,515.849304 
	C675.432678,519.536804 675.076721,523.081421 669.996277,523.340881 
	C667.094360,523.489075 664.595337,522.884460 663.236511,520.149841 
	C661.843750,517.347046 662.965759,515.067810 665.117737,513.034546 
	C668.074829,510.240784 670.018066,506.527527 673.978210,504.243683 
	C671.018127,501.030273 668.291016,502.074158 665.796692,503.180389 
	C663.178589,504.341522 660.099304,505.316101 659.909546,508.972412 
	C659.867126,509.789276 660.265808,510.759216 659.440308,511.238861 
	C653.314087,514.798401 657.318909,518.773376 659.065552,522.496704 
	C659.970764,524.426392 661.328613,526.228882 662.799683,527.789429 
	C665.479370,530.632019 666.917175,533.676453 666.192383,537.710083 
	C665.712830,540.378967 667.257874,542.622864 668.987366,544.417297 
	C673.196594,548.784668 672.644226,553.773254 671.264587,558.925232 
	C670.409424,562.118713 668.455139,562.285217 665.981873,560.645325 
	C658.415161,555.628113 657.550598,555.505798 648.891357,558.291260 
	C648.321167,559.390259 649.094238,560.203247 649.526611,561.060608 
	C654.208435,570.344421 647.664429,580.700195 637.132996,580.590454 
	C635.306580,580.571411 633.432251,580.476990 631.668091,580.051941 
	C626.648010,578.842163 622.520508,578.873230 619.201843,584.079590 
	C616.933472,587.638245 613.781494,587.062805 611.080444,583.721680 
	C610.452515,582.945007 609.922852,582.064941 609.197083,581.396179 
	C607.384949,579.726440 605.600830,577.385681 602.876526,578.100586 
	C600.368103,578.759033 600.719727,581.591858 600.220947,583.611267 
	C599.336670,587.192078 598.537170,590.745422 595.474121,593.274353 
	C593.992554,594.497620 593.474976,596.318237 593.180237,598.154663 
	C591.695312,607.406555 585.721924,612.109375 576.956238,613.195068 
	C571.937500,613.816589 566.759033,614.609619 561.676392,613.257324 
	C560.592346,612.968811 559.493896,612.952332 558.924377,613.798523 
	C554.267822,620.717285 545.495422,621.808228 539.837402,627.386719 
	C537.616882,629.576050 534.054260,628.810120 531.189331,628.639832 
	C525.732788,628.315491 520.435913,627.620056 514.971863,629.347717 
	C511.337830,630.496704 508.911316,626.465515 505.233032,625.439392 
	C503.240234,630.902161 498.690765,631.669189 493.573975,631.391846 
	C491.066467,631.255920 488.627075,631.364624 486.603943,633.353882 
	C483.047943,636.850464 479.091644,635.863220 475.806458,633.262939 
	C473.555603,631.481262 471.324890,629.431885 468.702667,628.837219 
	C463.726410,627.708618 461.307709,622.117065 455.838776,622.044495 
	C454.721558,622.029663 453.955261,620.598572 453.966583,619.364502 
	C454.006165,615.049255 451.629883,615.581604 448.634644,616.314941 
	C443.475952,617.577881 440.405884,615.606567 439.839722,610.396484 
	C439.355164,605.937256 436.902100,601.861511 437.543304,597.213074 
	C437.770111,595.568848 436.551575,594.797974 435.132111,594.572571 
	C433.825592,594.365112 432.446564,594.188049 431.155426,594.377930 
	C421.942230,595.733276 413.770691,592.773193 405.810913,588.146423 
	C405.855988,583.971741 409.920441,582.760559 412.429779,580.315857 
	C413.703400,579.075012 415.846527,578.267395 415.400299,576.080933 
	C414.960327,573.925110 412.581726,574.184021 411.091919,573.299988 
	C402.662750,568.298401 394.871735,569.653625 386.028564,573.268494 
	C377.081360,576.926025 373.361664,573.542297 370.199860,564.552063 
	C367.564484,557.058716 366.875824,550.343140 372.661530,544.098328 
	C372.904938,543.835571 372.736267,543.191101 372.802460,541.863403 
	C368.454803,543.813538 365.041504,546.054443 362.255188,549.392883 
	C358.537781,553.846741 354.173157,553.571838 350.958710,548.793091 
	C349.939392,547.277771 349.007751,545.703613 347.996704,544.182556 
	C346.038177,541.235962 346.264191,538.341309 348.830444,536.066895 
	C352.543121,532.776428 355.409088,528.484436 360.125427,526.349609 
	C360.711121,526.084473 361.514160,525.633728 361.642212,525.124512 
	C363.227264,518.821350 367.881226,516.308411 374.143829,515.727600 
	C372.755829,512.392883 370.802277,512.173706 368.675476,513.484558 
	C364.143707,516.277649 359.938354,519.579041 353.942444,517.561829 
	C351.876068,516.866577 351.221710,518.944763 351.355164,520.809937 
	C351.474731,522.481628 351.846344,524.184509 349.862610,525.398071 
	C347.845245,525.567810 347.543732,522.068176 344.720795,522.986145 
	C343.905060,523.517090 343.696533,524.475037 344.416595,525.696716 
	C346.625793,529.444885 345.823853,532.517822 342.021667,534.972229 
	C337.906464,537.628662 333.115326,537.188171 331.039948,533.608459 
	C329.433777,530.838013 328.198608,527.957825 323.994537,528.267273 
	C325.198517,524.294189 327.924286,524.444824 330.505463,524.897888 
	C332.095337,525.177002 333.588745,526.081970 335.086731,526.788025 
	C336.913116,527.648926 338.362091,526.953064 339.579742,525.687012 
	C340.955658,524.256348 340.600769,522.641968 339.726624,521.076416 
	C338.726166,519.284668 337.244354,519.080994 335.454163,519.742065 
	C333.749084,520.371826 332.019653,520.935425 329.929382,521.540894 
M493.134186,453.479950 
	C494.755249,464.732971 500.621674,472.794128 510.997894,477.617950 
	C514.221863,479.116699 517.500977,479.610291 520.623047,478.157776 
	C529.901611,473.841034 539.338867,455.693390 537.928467,445.292145 
	C537.646423,443.212402 536.952881,440.789215 534.329956,441.718079 
	C529.926025,443.277679 526.923584,440.215332 523.450623,439.621674 
	C523.000366,437.167114 525.562683,435.281921 523.700439,433.198151 
	C521.990906,433.046143 522.016235,436.057739 519.668945,434.830963 
	C518.199158,432.660278 519.170166,430.785187 521.453735,429.933044 
	C526.146606,428.181824 524.736511,425.973938 522.425964,423.296112 
	C520.914124,421.543884 519.655334,419.571808 518.302368,417.684509 
	C517.137573,416.059784 516.024109,414.373932 513.471741,414.877441 
	C511.562134,417.681854 513.406311,421.560425 510.667816,424.184418 
	C507.880463,426.855225 507.901703,429.101288 511.911194,430.975433 
	C514.318726,432.100739 516.679382,434.071777 514.641113,437.318024 
	C512.213928,437.614899 512.149475,434.202667 509.824219,434.937500 
	C510.029297,440.987640 505.111725,444.206879 499.614349,441.647308 
	C494.853058,439.430481 492.394012,440.922699 492.339417,446.225433 
	C492.317322,448.369934 492.700043,450.518616 493.134186,453.479950 
M553.929626,560.663879 
	C560.239990,563.273071 565.341919,560.684265 569.785034,556.554199 
	C571.810364,554.671631 574.099060,553.888733 576.084351,555.038696 
	C583.296875,559.216431 589.148193,556.579224 594.895508,551.986511 
	C591.805847,548.756042 588.130615,547.463623 583.718384,548.344543 
	C579.438904,549.198914 575.113037,549.077454 570.782349,548.965637 
	C568.461243,548.905640 566.023987,548.616943 563.901245,549.727417 
	C559.634766,551.959473 554.942261,551.982971 550.371155,552.665222 
	C548.448975,552.952148 546.353088,552.789978 545.532837,550.930908 
	C542.721252,544.558594 536.738098,544.645447 531.507324,544.536804 
	C526.257202,544.427734 521.295654,547.354004 518.519470,551.659485 
	C516.981995,554.043884 519.283813,557.695190 521.572998,559.686096 
	C521.650818,561.658813 519.436584,562.287659 520.066833,564.398315 
	C524.474487,564.246216 528.395386,568.184509 533.294739,565.896179 
	C537.056091,564.139343 541.076965,562.899292 544.721008,560.942566 
	C547.621826,559.384888 550.252014,558.849487 553.929626,560.663879 
M422.294708,529.502075 
	C426.491730,530.140808 429.660858,527.847534 432.799988,525.671997 
	C436.141357,523.356384 439.628113,522.420349 443.653839,523.425842 
	C448.006897,524.513062 452.406403,525.414490 456.786560,526.392944 
	C459.439423,526.985596 462.100830,526.063599 462.309143,523.560303 
	C462.721191,518.608459 463.076416,513.678528 464.035156,508.792267 
	C464.244354,507.726074 463.438965,506.830017 462.454010,506.488251 
	C459.198944,505.358704 456.161682,503.296326 452.419159,504.169830 
	C447.090607,505.413391 441.646088,506.262177 436.429169,507.860718 
	C425.816437,511.112488 417.500854,517.365417 412.880432,527.768921 
	C411.816833,530.163818 408.762238,531.738953 409.632996,535.745178 
	C413.815582,533.395630 416.609283,529.164246 422.294708,529.502075 
M532.642456,508.985413 
	C537.758911,507.814331 542.920654,511.430237 548.593689,509.015320 
	C546.197144,506.347229 546.426819,502.157135 542.229492,501.625366 
	C535.001709,500.709564 532.151184,497.970154 531.090942,490.757751 
	C530.679810,487.960968 530.336182,485.152863 529.857361,482.367889 
	C529.468689,480.107635 528.176270,478.842865 526.054077,480.453888 
	C519.751404,485.238556 513.458191,484.543396 506.963654,480.954346 
	C503.589325,479.089600 501.685394,480.795319 501.584778,484.098602 
	C501.469696,487.878510 500.555359,491.294861 498.845276,494.591278 
	C498.297211,495.647736 497.965179,496.776245 499.023224,497.904968 
	C501.355896,498.622803 502.488159,496.571472 504.072266,495.552307 
	C507.727203,493.200806 511.344452,490.610687 516.061829,492.040833 
	C518.873169,492.893097 520.502258,494.908630 520.816772,497.855530 
	C521.112976,500.630493 518.740784,500.843445 517.026184,501.723175 
	C515.328857,502.593964 513.147583,503.165802 513.863159,506.724060 
	C519.906738,506.024231 525.714417,508.089050 532.642456,508.985413 
M623.531799,557.754028 
	C619.407715,557.802490 617.927368,560.018738 618.495728,563.905457 
	C620.109375,574.940308 633.760315,580.549316 642.823914,573.783020 
	C645.637573,571.682495 648.896545,568.630615 647.005310,565.084412 
	C643.903748,559.268738 643.553101,551.122742 635.236389,549.097717 
	C634.987854,549.037231 634.650452,549.342041 634.179260,549.556091 
	C632.820557,554.478027 630.225159,558.184265 623.531799,557.754028 
M567.457886,588.897522 
	C568.737976,587.687012 571.203003,586.826416 570.521423,584.792664 
	C569.292358,581.125183 564.588806,582.724976 562.369019,580.316528 
	C564.353699,574.469116 570.420715,572.825928 573.782410,568.089294 
	C579.049744,574.096069 581.719543,567.045654 585.772949,566.663696 
	C583.471985,559.318115 576.704102,556.939331 570.728638,560.745422 
	C567.862976,562.570740 565.062256,564.450623 561.241516,564.615540 
	C557.011963,564.798096 554.240723,569.807800 555.541992,574.065979 
	C556.126953,575.980286 555.670044,577.666443 555.289673,579.437012 
	C553.576172,587.413025 558.745789,591.806213 567.457886,588.897522 
M399.494293,536.971130 
	C404.563446,534.126221 408.279510,529.967346 410.936218,524.873840 
	C412.873566,521.159607 410.235474,518.996704 407.520203,517.871094 
	C404.562836,516.645142 400.826538,516.563965 399.504181,520.375122 
	C396.903076,527.871643 391.527588,531.792542 384.180054,533.461914 
	C381.775421,534.008301 380.225281,535.350708 379.649963,537.536804 
	C378.808105,540.735596 381.155518,542.833862 383.005005,544.843079 
	C384.610229,546.586975 386.399902,545.185425 387.933563,544.244507 
	C391.607941,541.990356 395.240936,539.668884 399.494293,536.971130 
M387.480011,568.067200 
	C389.911835,567.120239 391.557404,565.833191 390.234772,562.831665 
	C388.573578,559.061951 389.751343,555.997681 392.993103,553.719238 
	C395.511902,551.948853 394.500336,550.025269 393.446106,548.083984 
	C392.130554,545.661377 390.305786,546.054016 388.445892,547.366882 
	C385.726257,549.286438 383.003357,549.701355 380.191956,547.585144 
	C378.247559,546.121521 377.075195,547.095764 375.616791,548.626831 
	C371.675323,552.764587 372.504150,557.122131 373.911774,562.027405 
	C376.294067,570.329102 378.724854,571.756409 387.480011,568.067200 
M560.846191,483.506348 
	C558.027771,485.089722 558.714905,488.009186 557.982422,490.475189 
	C556.203552,496.464111 561.177246,496.702637 564.297302,497.891113 
	C567.887512,499.258636 571.188232,498.426270 572.464355,493.924164 
	C573.212402,491.285126 573.146362,488.167816 576.032471,486.526550 
	C579.083374,484.791626 580.068970,481.790161 580.783142,478.657135 
	C581.215698,476.759338 582.219421,474.660400 580.080627,473.168945 
	C577.996216,471.715454 575.073608,471.337463 573.515869,472.892761 
	C569.749329,476.653442 564.474976,478.512482 560.846191,483.506348 
M545.191650,615.380737 
	C546.291260,613.681091 546.016724,610.774963 548.891785,610.630615 
	C552.060181,610.471619 550.148621,614.511108 552.623596,615.322876 
	C554.893005,614.267456 557.022827,612.652283 556.541748,609.868652 
	C556.091248,607.262329 553.428772,609.035034 551.852539,608.465210 
	C550.768860,608.073486 549.429993,608.180969 548.503662,607.594116 
	C541.830200,603.365784 537.134766,609.148132 531.972717,611.245911 
	C529.949646,612.068054 528.161072,614.574463 525.467163,615.353882 
	C524.156189,613.893494 522.906982,611.190552 520.646240,614.188721 
	C518.052490,617.628601 516.602417,621.810181 512.545288,624.786377 
	C516.789490,626.396606 519.168884,622.271362 522.209229,624.142456 
	C525.080811,625.909790 528.351990,624.598816 531.422302,625.436584 
	C533.945679,626.125000 535.141846,623.887207 535.433716,621.467590 
	C535.606506,620.035217 534.540710,618.536682 535.792725,616.972107 
	C538.729858,616.927490 541.863220,617.213440 545.191650,615.380737 
M529.499451,527.927856 
	C524.962524,525.811157 520.719666,525.922058 516.264282,528.631470 
	C513.351868,530.402527 509.963593,531.410278 506.539001,532.285095 
	C503.275085,533.118835 499.342285,534.767700 498.620209,538.281250 
	C497.777313,542.382812 502.453888,542.508240 504.915405,544.151611 
	C505.602051,544.609985 506.339874,545.054382 507.118927,545.299500 
	C509.072662,545.914429 511.119293,546.191711 512.775574,544.688232 
	C514.591370,543.040100 513.249451,541.351501 512.526855,539.716675 
	C512.187622,538.949402 511.919006,538.167480 512.818237,537.130371 
	C517.729492,535.598877 522.739746,535.361511 527.500183,538.637756 
	C529.515869,540.024963 531.240051,539.351929 532.756836,537.642761 
	C535.784424,534.231140 534.841125,530.716675 529.499451,527.927856 
M662.828186,541.667053 
	C659.828369,537.942261 656.533569,535.044861 651.287537,534.593628 
	C649.403503,534.431641 647.475891,532.102356 645.515625,534.056763 
	C643.285156,536.280518 644.484558,538.647339 646.033203,540.790833 
	C647.528992,542.861267 648.619934,545.175110 648.477112,547.709595 
	C648.188599,552.829346 649.416199,554.395508 654.376892,553.971069 
	C659.119873,553.565308 663.451904,551.131958 668.947327,551.798889 
	C668.062500,547.171143 665.658752,544.690796 662.828186,541.667053 
M646.567749,512.109741 
	C649.930847,513.408508 652.016357,512.979980 651.961426,508.657623 
	C651.920044,505.394287 653.552063,502.962067 656.733826,501.767975 
	C658.156433,501.234039 659.746216,500.714447 659.548523,498.812775 
	C659.367615,497.072937 657.846741,496.369720 656.388428,496.033936 
	C649.636353,494.479095 642.905029,494.275177 636.375549,497.025757 
	C634.943420,497.629028 633.145569,498.058685 632.973938,499.172089 
	C635.495544,505.917633 640.229187,509.356781 646.567749,512.109741 
M471.571808,581.815552 
	C471.137054,580.388184 471.101624,578.600037 470.196198,577.597961 
	C466.850800,573.895203 465.666351,569.854553 466.716156,564.935242 
	C467.050079,563.370361 466.260895,561.624146 463.430756,561.525391 
	C462.418640,565.281433 458.078735,567.585449 458.344543,572.135315 
	C458.575867,576.095337 457.639374,579.332031 454.323425,581.706421 
	C453.017426,582.641541 451.877686,583.892029 453.269562,585.394836 
	C455.243011,587.525574 457.298004,590.973206 460.510254,589.554321 
	C464.467072,587.806458 470.667206,589.117249 471.571808,581.815552 
M468.592346,592.298340 
	C461.992310,591.203247 456.810425,594.055054 450.954712,598.005127 
	C455.056824,599.489197 457.913452,599.536133 461.171204,598.830994 
	C468.652802,597.211548 479.395996,601.076111 481.527008,610.226257 
	C482.356903,613.789795 484.235138,616.897888 488.664795,618.577820 
	C489.870636,613.839355 488.889465,609.579895 487.733154,605.466492 
	C486.842621,602.298401 483.996704,603.896545 481.542480,604.164734 
	C481.542480,603.024963 481.599579,602.230591 481.533600,601.446533 
	C480.935974,594.345886 478.973267,592.659729 471.693268,592.877991 
	C470.883789,592.902283 470.067291,592.691284 468.592346,592.298340 
M518.613831,595.369507 
	C519.097656,593.064392 520.283325,592.840515 522.590332,593.211975 
	C525.679871,593.709351 527.837646,591.539429 529.138611,588.875305 
	C530.293213,586.510742 529.156738,584.061829 527.859619,582.389221 
	C526.171387,580.212280 523.102356,581.224304 521.438232,582.337219 
	C515.605591,586.238159 508.362091,588.394653 506.554596,597.053223 
	C504.885437,605.049194 505.751190,606.684509 514.483582,605.079163 
	C514.322693,602.718994 514.157410,600.294189 513.983948,597.749207 
	C515.419556,597.091370 517.803772,598.619141 518.613831,595.369507 
M605.838989,506.910217 
	C601.217834,507.334961 596.076233,502.506775 591.642761,507.987640 
	C592.266418,508.689819 592.520386,509.215546 592.928650,509.400238 
	C601.355713,513.211731 609.737061,517.136658 618.275391,520.682861 
	C621.286438,521.933411 621.672852,519.135681 621.330933,517.211182 
	C620.674805,513.517639 619.524109,509.911957 618.562134,506.206360 
	C614.322754,506.497009 610.523071,506.757477 605.838989,506.910217 
M445.026337,540.426941 
	C442.109711,536.284485 438.067108,536.445129 433.913666,537.748596 
	C431.787506,538.415833 429.840393,538.699158 427.624939,538.152405 
	C423.477631,537.128967 421.512665,538.864258 422.251495,542.963867 
	C422.771484,545.849426 423.835754,548.623230 426.508972,550.165955 
	C428.630280,549.493469 427.485657,546.748169 429.755707,546.286133 
	C433.084015,549.833862 437.709717,548.808594 441.755096,548.450562 
	C444.081818,548.244507 447.773285,547.851135 448.787323,544.701843 
	C449.519745,542.427185 446.646057,542.174622 445.026337,540.426941 
M443.150452,577.407959 
	C439.692078,577.341797 439.672546,580.688904 438.442688,582.592957 
	C435.863647,582.118958 435.519257,579.004395 432.737061,578.942078 
	C431.148315,582.567749 429.423248,586.197998 428.787415,590.386536 
	C432.679962,591.864868 436.362915,592.507446 439.660034,590.432434 
	C444.991974,587.076843 449.068176,582.179260 453.692444,577.958069 
	C455.094635,576.678101 455.485443,574.610107 453.825806,573.064148 
	C452.388641,571.725464 450.729034,572.200317 449.289581,573.293274 
	C447.478210,574.668579 446.391724,577.025696 443.150452,577.407959 
M639.007446,525.094604 
	C642.067078,528.217590 643.446411,527.117615 643.747375,523.223145 
	C643.836731,522.067749 643.916138,520.900085 644.150513,519.769287 
	C645.169434,514.853149 643.010071,511.303619 638.046997,511.306580 
	C633.079041,511.309509 629.633484,510.863068 631.865479,504.670685 
	C629.331299,504.122284 626.920288,504.999237 627.529541,506.927887 
	C629.297913,512.526123 627.181213,518.784058 630.781433,524.351624 
	C633.407898,522.699341 635.983948,522.919556 639.007446,525.094604 
M599.344055,541.818542 
	C600.145325,542.890381 598.999817,544.533997 600.486511,545.501038 
	C602.563171,545.598755 604.158875,544.527710 604.239990,542.504761 
	C604.366638,539.345276 603.901245,536.149231 600.941223,534.121887 
	C598.901245,532.724731 596.615662,531.654419 595.601562,529.134766 
	C593.742249,524.515015 590.270569,522.636230 585.360352,523.191467 
	C583.484680,523.403625 580.996033,522.450439 580.341125,525.101685 
	C579.801636,527.285645 579.808533,529.692261 581.856018,530.854431 
	C584.263794,530.914551 582.957642,527.988892 585.059204,527.979309 
	C586.299927,530.472961 587.506836,532.581787 589.612183,534.602661 
	C592.496582,537.371216 597.258240,537.222412 599.344055,541.818542 
M475.011658,620.461182 
	C473.127472,621.280762 471.742645,620.587097 470.859161,618.907593 
	C469.544434,616.408386 467.393280,614.963379 464.928192,613.848633 
	C462.864807,612.915588 461.388092,613.754700 460.277985,615.462280 
	C459.089935,617.289856 459.627380,618.480713 461.211334,620.115784 
	C465.928040,624.984863 472.967865,626.206177 477.658997,631.046326 
	C478.597656,632.014832 480.105164,632.110046 481.238190,630.895996 
	C483.771423,628.181458 481.227783,618.065063 477.550995,616.219421 
	C476.044281,617.092468 476.722504,619.042603 475.011658,620.461182 
M584.338013,594.434204 
	C584.218445,597.775330 583.650391,601.197510 586.314087,605.001709 
	C590.079102,597.043640 587.758850,588.910278 589.971680,581.588501 
	C592.340820,573.749817 594.371033,565.880676 594.951233,557.536316 
	C589.495911,558.092346 587.940186,559.920959 589.085022,564.184937 
	C589.722229,566.558411 589.229797,568.593506 588.785278,570.915649 
	C587.339722,578.466919 584.750732,585.802246 584.338013,594.434204 
M727.245728,470.210358 
	C723.322083,467.061066 718.960205,465.410858 713.879395,466.471588 
	C711.950684,466.874237 710.521301,467.928772 710.465820,470.128815 
	C710.416321,472.088440 711.548096,473.267639 713.323730,473.665161 
	C717.621582,474.627472 721.143860,477.173798 724.947998,479.146240 
	C726.843201,480.128845 728.789062,481.644470 730.760559,479.498108 
	C732.785889,477.293121 731.515503,475.166321 730.159058,473.219879 
	C729.505676,472.282227 728.588074,471.528625 727.245728,470.210358 
M605.881226,525.806030 
	C607.749878,527.180054 609.760925,525.876648 611.680786,526.124146 
	C613.237793,526.324890 615.170532,527.527771 615.702698,524.965515 
	C616.241455,522.371521 614.295532,521.554688 612.228394,521.016357 
	C609.367554,520.271240 606.211182,520.235046 603.916138,518.035583 
	C598.936401,513.263184 594.012695,515.429810 588.539001,517.886597 
	C592.044495,521.673096 596.392822,523.747864 598.925415,527.201660 
	C601.518250,526.786316 600.933533,524.067017 603.001160,523.691895 
	C603.731445,524.253479 604.513306,524.854858 605.881226,525.806030 
M487.088379,578.527161 
	C486.298279,575.378662 484.027588,574.129272 480.193207,574.224426 
	C483.088470,571.257629 483.548096,568.707703 480.796631,566.366272 
	C478.621185,564.515015 476.051208,564.462219 473.883240,566.067383 
	C471.364777,567.932068 470.337616,570.438904 472.540924,573.411926 
	C473.008392,574.042664 473.257111,574.941589 473.327728,575.741577 
	C473.607910,578.914795 474.540192,581.845825 477.871765,582.752014 
	C481.582123,583.761169 484.776978,582.544434 487.088379,578.527161 
M386.264160,514.890564 
	C388.899963,513.074036 392.642029,515.308411 395.100983,512.657837 
	C394.700500,509.785553 393.180267,508.337524 390.450287,508.219696 
	C385.902313,508.023376 381.996887,509.899017 379.946625,513.680847 
	C377.781982,517.673584 375.353119,519.869629 370.656158,519.549011 
	C368.237000,519.383911 366.654846,521.061035 366.248138,523.505676 
	C365.994537,525.029907 366.042358,526.745911 367.736877,527.363098 
	C370.256866,528.280823 371.277496,526.345764 372.222107,524.510132 
	C372.295715,524.367065 372.422668,524.234375 372.555847,524.141357 
	C376.884766,521.118591 382.722870,520.303040 386.264160,514.890564 
M358.117126,531.530518 
	C356.594727,532.804565 354.991760,533.995056 353.565186,535.368652 
	C349.489838,539.292603 349.297729,542.344116 352.693848,546.647461 
	C353.682800,547.900574 354.913727,548.743469 356.522675,548.475586 
	C358.109344,548.211304 358.441223,546.784119 358.649780,545.460571 
	C359.098633,542.612122 359.716614,539.897827 362.576447,538.389954 
	C364.784302,537.225830 366.736328,535.620850 365.420624,532.926147 
	C364.039825,530.098206 361.564209,529.497375 358.117126,531.530518 
M549.955933,580.951172 
	C547.544128,579.317261 544.607788,576.507507 542.829651,580.902222 
	C541.658447,583.796814 542.123230,587.440125 542.231323,590.735840 
	C542.307617,593.063599 544.757263,592.313721 546.105713,593.021851 
	C547.096558,593.542175 547.128418,594.641602 547.253113,595.635071 
	C547.436646,597.096863 547.405396,598.683105 549.407593,599.405151 
	C551.979675,598.497437 554.269348,597.163757 555.269958,593.560181 
	C549.046326,591.453674 551.902344,585.738464 549.955933,580.951172 
M615.896240,569.746399 
	C613.110901,569.760925 613.772034,565.751160 611.266113,565.463196 
	C609.255798,567.433167 611.572998,570.655762 608.952148,572.318115 
	C606.758362,571.336243 607.041809,569.268738 606.468506,567.635681 
	C606.078125,566.523438 605.554810,565.353577 604.077148,565.583740 
	C602.681396,565.801147 602.370605,566.990784 602.199463,568.184753 
	C601.862000,570.539673 602.766296,572.440308 604.500549,573.931519 
	C606.637878,575.769165 608.864380,577.502930 611.041931,579.294250 
	C612.550110,580.534912 613.897827,582.498596 616.170532,581.525696 
	C618.704895,580.440918 618.833191,577.893677 618.911133,575.561035 
	C618.984680,573.360901 618.611816,571.238525 615.896240,569.746399 
M602.189880,489.631744 
	C604.259399,482.220398 602.522278,478.761749 596.251160,477.807678 
	C591.909668,477.147125 590.991333,478.102173 592.542053,482.318176 
	C594.013245,486.318329 594.955505,490.202881 593.414368,494.397797 
	C593.025940,495.455078 593.077332,496.735840 594.675781,497.546051 
	C598.554504,496.783264 600.137390,493.437012 602.189880,489.631744 
M497.544891,519.575806 
	C498.321503,524.107910 495.291443,527.857117 494.147980,532.632507 
	C501.460175,532.538818 506.381805,527.782410 512.503906,526.700562 
	C514.486206,526.350342 513.940247,523.997925 512.379944,522.776428 
	C510.399750,521.226257 508.225464,519.916138 505.572052,520.209290 
	C503.051056,520.487915 500.623199,520.227966 497.544891,519.575806 
M508.269104,586.695557 
	C513.737671,582.641541 521.624023,581.150513 524.115479,572.699524 
	C518.019653,572.177612 514.284668,576.326172 509.372162,576.357422 
	C507.043915,576.372192 503.705200,576.451416 503.533722,579.641113 
	C503.383789,582.429688 503.797485,585.764343 508.269104,586.695557 
M294.878998,454.274841 
	C298.193634,456.030884 301.380951,458.119568 304.858276,459.450592 
	C308.430664,460.818024 312.077667,459.920227 315.411957,458.062347 
	C316.591064,457.405396 317.754730,456.681793 317.669128,455.077393 
	C317.573090,453.276489 316.230957,452.167847 314.803040,452.068573 
	C309.219727,451.680237 303.615753,451.513397 298.017822,451.469482 
	C296.760315,451.459595 295.477417,452.251831 294.878998,454.274841 
M572.548157,599.844910 
	C570.243347,599.763550 567.938477,599.617310 565.633728,599.620361 
	C563.578613,599.623108 562.805359,601.151245 562.393250,602.830078 
	C562.090759,604.062500 562.475220,605.667542 563.838562,605.431213 
	C568.482849,604.626160 571.636108,607.429016 575.225647,609.413574 
	C577.260254,610.538452 579.400452,609.636536 580.291138,607.636230 
	C581.566772,604.771362 582.785034,601.406067 580.705933,598.632263 
	C579.344543,596.816040 577.416199,598.707275 575.947021,599.692139 
	C575.050659,600.292969 574.159241,600.514954 572.548157,599.844910 
M491.392944,578.897400 
	C489.889038,581.206421 486.005066,583.746033 490.081299,586.240540 
	C494.357941,588.857727 499.029663,590.922729 503.064087,594.182312 
	C504.444672,591.702942 503.395935,590.064026 502.647522,588.447388 
	C501.179535,585.276550 499.533600,582.187073 498.099457,579.001770 
	C495.986786,574.309326 495.602020,574.239197 491.392944,578.897400 
M562.754578,539.718689 
	C560.236938,538.342773 550.034363,539.505615 548.802979,541.627075 
	C547.451172,543.956177 545.315857,547.393555 548.766235,548.944275 
	C552.551880,550.645691 556.943298,549.592834 560.724426,547.487732 
	C563.645447,545.861572 563.115417,543.061157 562.754578,539.718689 
M519.744080,510.453674 
	C518.274475,510.685272 516.797058,510.876099 515.336914,511.156921 
	C512.301880,511.740570 511.451813,513.594238 512.818359,516.233826 
	C514.079712,518.670288 515.373169,521.282043 519.021606,521.534973 
	C521.579407,511.713104 530.240601,518.298828 536.935059,515.411072 
	C531.055298,511.926636 525.680603,511.467438 519.744080,510.453674 
M404.488190,508.610992 
	C405.833527,515.340210 410.281677,517.515930 415.945618,514.160645 
	C417.623230,513.166809 420.024628,512.234070 419.434906,509.878693 
	C418.764343,507.200165 416.239349,508.212891 414.362885,508.425446 
	C412.484192,508.638306 410.555511,509.005341 409.762115,506.713837 
	C409.040955,504.630981 408.923157,502.525330 410.256775,500.503052 
	C411.033356,499.325409 413.259735,499.468719 413.007294,497.151794 
	C409.921021,495.487244 408.413757,497.800720 407.381744,499.891754 
	C406.146851,502.393890 405.530060,505.201080 404.488190,508.610992 
M554.685852,505.941681 
	C555.813416,506.197174 556.932861,506.499634 558.070312,506.698334 
	C560.356201,507.097626 562.559753,506.859222 563.468506,504.397278 
	C564.551208,501.463867 562.021362,500.753357 560.131653,499.861237 
	C557.575195,498.654205 555.021973,497.521027 553.445923,494.964264 
	C552.669678,493.705078 551.836670,492.243439 549.946655,493.182373 
	C547.993530,494.152618 546.686584,495.760834 547.278687,497.968445 
	C548.237610,501.543823 549.677490,504.911102 554.685852,505.941681 
M547.856506,524.553406 
	C550.940308,526.805664 553.332092,525.100403 555.139832,522.836609 
	C556.473206,521.166809 559.306335,519.438049 557.932800,517.008606 
	C555.710693,513.078125 551.170532,514.114014 547.543335,513.542175 
	C544.984985,513.138855 542.600098,514.098694 542.008301,517.642273 
	C545.663086,518.146057 545.869568,521.583191 547.856506,524.553406 
M481.637726,504.688965 
	C484.730560,504.009094 487.959259,503.685486 490.483521,501.731781 
	C490.224213,499.703339 488.892792,499.216248 487.647095,498.900299 
	C482.758606,497.660522 477.857788,496.455353 472.923828,495.416565 
	C471.165375,495.046387 468.955750,494.906982 468.491791,497.305786 
	C468.082703,499.420929 469.838654,500.640198 471.528503,501.321411 
	C474.583588,502.553009 477.750549,503.506989 481.637726,504.688965 
M626.776184,553.285217 
	C628.790100,553.443970 629.796997,552.269531 630.421204,550.558411 
	C632.114746,545.915955 629.420288,535.918823 625.556763,532.542603 
	C624.228516,531.381897 622.865234,530.515076 620.902405,532.234863 
	C622.652039,534.616455 619.706909,538.573914 622.781799,540.176270 
	C626.977295,542.362549 627.073303,545.061890 625.612427,548.728699 
	C625.025940,550.200806 625.128967,551.660645 626.776184,553.285217 
M647.831665,525.426941 
	C650.775452,530.729614 654.700867,533.940979 661.377686,531.654724 
	C659.509521,526.591980 654.647034,523.444824 652.995850,518.249512 
	C652.534241,516.797241 650.744629,517.243164 649.541260,518.108521 
	C647.187012,519.801453 646.692810,522.068665 647.831665,525.426941 
M442.975769,611.292725 
	C446.065613,613.012146 449.591217,611.289917 449.542633,607.689087 
	C449.484619,603.386292 449.533112,598.809326 445.198425,595.710571 
	C442.171967,596.590759 440.669922,598.699524 441.047668,601.884827 
	C441.395142,604.814758 442.105286,607.701782 442.975769,611.292725 
M448.051910,561.426819 
	C444.653687,563.540894 441.255463,565.654968 437.757019,567.831360 
	C442.805664,572.040161 452.467377,569.686340 457.215240,563.343750 
	C455.051208,560.093750 452.209015,559.436218 448.051910,561.426819 
M568.120972,529.227356 
	C566.029175,529.346375 562.418030,528.082397 562.965820,531.577881 
	C563.608887,535.681213 565.782715,539.585327 567.572876,543.445923 
	C568.189514,544.775635 569.737915,544.871338 570.937988,543.718933 
	C573.528076,541.231689 572.092163,531.358398 568.120972,529.227356 
M394.448151,502.202881 
	C395.646851,505.396576 397.991760,507.490997 401.169495,509.512817 
	C403.035461,504.182922 403.223816,499.029327 404.229675,493.043427 
	C399.139832,494.636688 395.368408,496.336090 394.448151,502.202881 
M538.628296,570.760193 
	C537.030151,568.519531 534.954285,568.980164 532.840515,569.756165 
	C530.500427,570.615356 529.826660,572.678223 529.329346,574.808533 
	C529.044800,576.027283 529.259094,577.454224 530.578430,577.670898 
	C533.957642,578.226013 535.630371,581.111694 538.385864,583.335266 
	C540.135315,579.109985 539.435425,575.268372 538.628296,570.760193 
M413.534149,582.942383 
	C412.403534,584.070251 410.546814,584.512451 410.189087,586.536072 
	C412.429657,587.860718 414.558624,589.510193 416.966461,590.428772 
	C419.200836,591.281311 423.330872,591.640747 422.556854,588.492676 
	C421.777710,585.323730 422.236237,581.720581 420.498047,578.670898 
	C417.647430,579.081177 416.089447,581.193481 413.534149,582.942383 
M587.159607,493.817688 
	C590.645386,493.641479 592.481873,491.190308 591.409363,487.212646 
	C590.448364,483.648865 588.770142,480.278503 587.319336,476.597046 
	C584.760742,478.385834 583.152588,480.495728 584.175537,482.736511 
	C585.737488,486.157928 585.439697,489.879669 587.159607,493.817688 
M499.672302,603.716736 
	C499.125977,606.960999 496.988678,609.637451 498.362335,613.580505 
	C500.276093,619.073853 506.092957,618.743286 509.177032,622.265198 
	C509.684021,622.844116 511.515717,621.521301 511.121826,619.798035 
	C499.856750,617.359070 501.822998,607.723389 501.412048,599.470276 
	C498.661346,600.730469 499.509155,601.974915 499.672302,603.716736 
M419.032745,548.801819 
	C420.062958,545.526733 418.555817,542.938171 415.712402,542.253052 
	C411.981598,541.354126 407.829163,540.837280 404.525177,544.498291 
	C409.401825,545.760437 412.672913,551.067444 419.032745,548.801819 
M424.694702,496.546326 
	C418.875519,496.042938 417.275299,497.196411 414.732178,503.800598 
	C416.894684,504.867676 419.259918,505.043884 421.498718,504.622253 
	C423.981812,504.154694 426.209442,502.774902 427.328278,500.375397 
	C428.160461,498.590698 426.621216,497.709991 424.694702,496.546326 
M680.141785,479.986053 
	C675.762390,476.266479 675.581360,481.307922 673.948303,483.054993 
	C672.698669,484.391968 671.650879,486.070129 673.566040,487.775299 
	C675.084229,489.127106 676.799500,490.258057 678.920044,489.576233 
	C681.107483,488.872833 681.047546,486.845520 681.009766,485.036804 
	C680.979187,483.569397 680.696899,482.107239 680.141785,479.986053 
M384.750336,497.067902 
	C382.304932,498.582886 379.300507,500.141296 382.646423,503.317627 
	C384.535095,505.110565 387.212738,505.242096 389.535950,503.749298 
	C391.616333,502.412476 391.980865,499.921997 391.317596,498.047028 
	C390.295380,495.157440 387.659180,496.067657 384.750336,497.067902 
M546.682678,565.079712 
	C543.358154,569.200867 543.839478,571.901611 548.572083,575.431824 
	C550.757080,574.080566 549.117493,571.318176 550.705444,569.661499 
	C551.744568,568.577332 553.873657,567.564636 552.703674,565.644409 
	C551.447571,563.583008 549.257385,564.227234 546.682678,565.079712 
M569.661621,520.174744 
	C570.218506,519.563843 570.832642,518.995178 571.320435,518.333313 
	C572.321655,516.974670 573.313782,515.496826 572.412537,513.764099 
	C571.300598,511.626251 569.447510,512.963257 567.956970,513.141174 
	C562.412598,513.803162 565.356445,518.378601 563.892029,521.027771 
	C566.073120,522.055420 567.552917,521.203552 569.661621,520.174744 
M574.377563,501.747253 
	C581.967834,496.375244 583.111816,494.010895 580.683167,487.161560 
	C577.341248,491.936096 574.423096,496.203888 574.377563,501.747253 
M558.703613,535.924622 
	C559.448059,532.956604 557.763306,530.126404 555.269653,530.684509 
	C552.145752,531.383667 548.825439,531.831970 545.887268,533.832031 
	C547.485718,535.673340 549.210266,536.862671 551.235107,536.455872 
	C553.530212,535.994873 555.733582,535.323059 558.703613,535.924622 
M582.068848,544.015686 
	C585.444214,538.733582 579.734863,537.825562 578.046631,534.161377 
	C575.957458,537.695618 575.554504,540.641663 576.662659,543.447144 
	C577.510437,545.593567 579.686340,544.846619 582.068848,544.015686 
M506.838593,504.245636 
	C506.455933,502.359375 508.617157,500.753326 507.650757,498.746277 
	C505.186096,498.485901 503.878204,500.112152 502.379059,501.311646 
	C500.604004,502.731842 499.769470,504.332611 501.800598,506.210571 
	C504.076813,508.315063 505.578308,507.393555 506.838593,504.245636 
M490.998444,600.229370 
	C491.310303,601.026306 490.698608,602.333313 492.346832,602.508728 
	C493.314087,600.237610 494.233368,597.924011 493.717255,595.431641 
	C493.319153,593.508911 492.098877,591.915161 489.895782,592.723145 
	C487.863617,593.468445 488.848572,595.121521 489.437195,596.462769 
	C489.895996,597.508057 490.409058,598.529541 490.998444,600.229370 
M432.079895,562.712097 
	C433.708160,562.854858 435.671448,563.352600 436.241058,561.234314 
	C436.693420,559.551941 435.203369,558.491272 433.848083,557.890686 
	C431.300720,556.761902 429.576569,558.041870 427.886780,560.208252 
	C429.252106,561.099487 430.333862,561.805603 432.079895,562.712097 
M581.271973,516.608276 
	C583.709473,515.996399 585.222412,514.716125 584.032959,512.037048 
	C583.431274,510.681610 582.198608,509.123077 580.630310,509.902405 
	C578.211853,511.104218 578.819153,513.466187 579.498169,515.549744 
	C579.625916,515.941589 580.206909,516.185669 581.271973,516.608276 
M444.715149,533.567993 
	C445.900879,530.444153 444.257874,528.642212 441.697479,527.406860 
	C440.939056,527.040955 439.730377,527.387695 439.703857,528.274841 
	C439.622772,530.982849 440.953430,532.901062 443.596832,533.783203 
	C443.745148,533.832703 443.925140,533.787231 444.715149,533.567993 
M499.437256,624.685730 
	C498.804260,623.864685 498.720215,622.389587 496.851410,622.771057 
	C496.076935,624.392700 495.719238,626.152466 496.161194,628.275024 
	C498.600067,628.494812 500.710632,628.732971 499.437256,624.685730 
M558.549316,600.880615 
	C554.752563,598.973999 553.733398,602.122742 550.707703,604.374146 
	C555.011230,604.959106 556.921021,603.645203 558.549316,600.880615 
M706.346863,498.902802 
	C706.954773,497.301208 707.657227,495.478821 705.187805,495.036804 
	C703.693909,494.769440 702.731812,496.157806 702.618225,497.528534 
	C702.401001,500.149597 704.007874,500.097137 706.346863,498.902802 
z"/>
<path fill="#000000" opacity="1.000000" stroke="none" 
	d="
M235.568054,634.489075 
	C259.946014,689.444946 297.055542,733.189392 346.758698,766.245056 
	C374.755890,784.864929 405.222046,798.006470 437.696045,806.585144 
	C443.355133,808.080139 443.126282,808.083923 441.399780,816.262878 
	C440.400085,820.998718 437.835022,820.415894 434.412323,819.496887 
	C350.825378,797.053833 286.409180,748.958618 241.347534,675.077515 
	C219.640320,639.487244 206.027130,600.826416 199.974136,559.689453 
	C192.379517,508.075653 196.672195,457.286591 214.417648,408.116821 
	C246.776016,318.456970 307.747955,255.774292 395.507080,219.188644 
	C425.666656,206.615509 457.317657,199.709457 489.996307,197.587479 
	C575.609070,192.028229 651.635315,216.350113 717.299377,271.519409 
	C772.942383,318.269257 807.650208,377.905792 823.083069,448.838776 
	C823.795349,452.112488 824.830933,455.310028 819.581787,456.207458 
	C810.861511,457.698273 810.997253,457.915070 809.582458,451.470062 
	C794.053040,380.723969 758.590942,322.188110 702.097839,276.658691 
	C661.981689,244.327881 616.356812,223.786209 565.735962,214.675644 
	C541.434082,210.301865 516.866821,209.408707 492.126221,211.032516 
	C455.112885,213.461853 419.926819,222.478912 386.330139,238.017166 
	C341.957397,258.539246 304.673126,288.027496 274.573822,326.548035 
	C242.099304,368.108368 221.518036,414.970062 213.690475,467.095612 
	C205.035217,524.733093 211.977127,580.566772 235.568054,634.489075 
z"/>
<path fill="#000000" opacity="1.000000" stroke="none" 
	d="
M728.907227,687.596863 
	C730.850586,685.253418 732.984924,685.866577 735.153259,686.170044 
	C742.196289,687.155579 749.253662,688.038147 756.305542,688.960388 
	C756.519958,688.546326 756.734436,688.132263 756.948853,687.718140 
	C752.195801,684.041565 747.548218,680.216614 742.653320,676.739746 
	C739.306030,674.362122 740.006958,672.410095 742.419312,669.959839 
	C744.096436,668.256348 745.501709,668.485535 747.191956,669.801636 
	C755.071411,675.937195 762.998108,682.012085 770.861145,688.168518 
	C772.127319,689.159790 773.881104,690.449890 772.342102,692.257690 
	C770.126221,694.860718 769.226929,699.207581 764.289368,698.509033 
	C756.237427,697.369751 748.161072,696.403687 738.861328,695.205566 
	C744.453796,699.591064 749.153870,703.260986 753.835144,706.954712 
	C755.996033,708.659729 758.886841,709.894409 756.116882,713.601685 
	C753.201416,717.503601 751.088013,715.021667 748.755005,713.222412 
	C742.559814,708.444763 736.393066,703.630127 730.201477,698.847839 
	C723.984131,694.045532 723.976990,694.054810 728.907227,687.596863 
z"/>
<path fill="#000000" opacity="1.000000" stroke="none" 
	d="
M582.809204,816.591614 
	C571.012939,807.522705 569.796570,791.260681 580.080627,783.794067 
	C584.388611,780.666321 589.377502,779.394958 594.614197,779.206238 
	C596.753906,779.128967 599.300537,779.197693 598.970703,782.482910 
	C598.711304,785.066895 598.125793,787.315674 594.535156,787.138916 
	C589.845337,786.908020 585.429382,787.920105 583.277405,792.775085 
	C581.041321,797.820068 582.280457,802.624573 585.272888,806.917297 
	C587.723389,810.432556 591.146545,811.594727 595.341858,809.871338 
	C597.185608,809.113892 598.004761,807.962463 597.513184,806.014526 
	C597.054993,804.198608 596.008240,802.788391 593.989380,803.453979 
	C590.579834,804.578186 589.484680,802.669861 588.835754,799.971619 
	C587.970154,796.371765 590.954773,796.317200 593.015930,795.751892 
	C604.023254,792.732666 602.282593,791.014099 605.688904,802.826416 
	C608.634460,813.041199 608.577698,813.163513 598.646179,816.743835 
	C593.502808,818.598022 588.321228,819.343140 582.809204,816.591614 
z"/>
<path fill="#000000" opacity="1.000000" stroke="none" 
	d="
M465.110260,817.367615 
	C465.739136,809.803711 466.316437,802.694885 466.797852,795.579590 
	C467.022156,792.263977 467.460876,789.906189 472.002960,790.436401 
	C476.290894,790.937012 476.098206,792.981506 475.636047,796.184387 
	C474.491669,804.115173 475.310974,805.247437 481.533813,805.627930 
	C488.062744,806.027161 488.441254,805.672241 488.709442,798.900635 
	C488.970001,792.321350 490.271088,791.182312 495.444855,792.619751 
	C497.260651,793.124207 497.891724,793.995422 497.743103,795.779663 
	C496.888916,806.032410 496.030487,816.285217 495.270264,826.545166 
	C495.052185,829.488342 493.169891,829.478577 491.056000,829.340698 
	C488.928802,829.202026 486.413330,829.574890 486.636597,826.190369 
	C486.844025,823.045837 487.046204,819.897583 487.394409,816.766968 
	C487.614105,814.791687 487.208832,813.485413 484.965118,813.340637 
	C481.682556,813.128845 478.401611,812.891602 474.652191,812.632996 
	C474.179291,816.659119 473.625916,820.396667 473.340332,824.154541 
	C473.160126,826.525940 472.547760,828.050720 469.779510,827.583130 
	C467.430573,827.186340 464.441803,827.708008 464.719452,823.790833 
	C464.860321,821.803528 464.921967,819.810486 465.110260,817.367615 
z"/>
<path fill="#000000" opacity="1.000000" stroke="none" 
	d="
M809.145508,528.635742 
	C813.026062,529.214661 816.537964,529.498535 819.892029,530.381836 
	C827.913940,532.494324 831.297852,539.714783 829.157898,549.586365 
	C827.471680,557.364990 821.648010,561.588379 813.954102,560.625610 
	C807.521790,559.820618 801.094055,558.972961 794.652100,558.253967 
	C791.084717,557.855835 790.009827,556.257446 790.502686,552.586243 
	C791.021729,548.719482 792.933838,548.525696 796.009521,549.023621 
	C801.740784,549.951477 807.501587,550.711731 813.264771,551.422058 
	C817.800537,551.981079 821.013672,549.931213 821.586609,546.235718 
	C822.283752,541.739441 819.633362,539.759583 815.760986,539.089539 
	C809.710144,538.042358 803.630554,537.143250 797.542542,536.336853 
	C794.471069,535.930054 792.590637,535.166260 793.266235,531.324097 
	C793.884644,527.807434 795.029175,526.320190 798.831726,527.257812 
	C802.039246,528.048767 805.407898,528.186340 809.145508,528.635742 
z"/>
<path fill="#000000" opacity="1.000000" stroke="none" 
	d="
M814.559326,589.569336 
	C816.663269,588.948669 818.366882,588.182068 820.218079,588.921448 
	C820.299744,595.694641 819.006409,597.439392 812.838501,599.032104 
	C810.327515,599.680481 807.544006,599.734619 805.746338,602.006287 
	C811.748291,617.897583 811.748291,617.897583 809.825562,620.930908 
	C805.859436,617.536621 802.777771,613.463196 799.861328,609.379700 
	C797.114624,605.533936 794.172424,604.576660 789.638428,605.988770 
	C785.445618,607.294617 781.176453,608.794312 776.676270,608.915527 
	C775.786377,603.068176 777.262695,600.635620 782.320251,599.292419 
	C782.962524,599.121765 783.594971,598.912964 784.238831,598.749146 
	C790.621521,597.125854 790.870361,596.327271 786.623657,591.063721 
	C782.056091,585.402527 781.979919,584.158386 786.375305,577.945251 
	C789.646851,581.797729 793.065491,585.322266 795.876221,589.278687 
	C798.522461,593.003418 801.393372,593.955566 805.586487,592.212219 
	C808.330688,591.071289 811.308411,590.492188 814.559326,589.569336 
z"/>
<path fill="#000000" opacity="1.000000" stroke="none" 
	d="
M677.631348,776.086853 
	C674.839111,766.128113 672.278748,756.502808 669.316162,747.002991 
	C668.175476,743.345215 669.637024,741.524658 672.301819,739.560852 
	C675.076904,737.515747 677.349854,737.161438 680.319824,739.361572 
	C689.364441,746.061646 698.592834,752.513733 707.729248,759.047791 
	C703.826050,764.967102 701.816895,765.562195 696.587524,761.738098 
	C692.231995,758.553101 690.403564,762.900879 687.599121,764.247803 
	C685.159058,765.419739 683.509216,767.205017 685.043518,770.212585 
	C686.879639,773.811646 685.892944,776.282410 682.458069,778.463196 
	C679.443237,780.377380 678.318848,779.449585 677.631348,776.086853 
M678.494507,750.720825 
	C679.679688,753.165466 679.704102,756.159912 681.840393,758.250854 
	C684.073181,757.555786 685.911743,756.697205 686.970093,754.153809 
	C684.149109,752.025269 681.352417,749.915100 677.952637,747.349915 
	C678.179810,748.868225 678.273743,749.495789 678.494507,750.720825 
z"/>
<path fill="#000000" opacity="1.000000" stroke="none" 
	d="
M793.101501,642.473755 
	C795.761414,640.790283 797.548218,642.356079 799.030884,643.811462 
	C800.789429,645.537720 799.004333,647.216125 798.254272,648.744995 
	C796.350098,652.626099 794.224426,656.398438 792.321899,660.280273 
	C791.037109,662.901978 789.412292,663.537231 786.751221,662.124329 
	C778.085022,657.523193 769.376587,652.999878 760.641174,648.531250 
	C758.031921,647.196472 757.371704,645.588623 758.868408,642.943787 
	C761.242920,638.747864 763.479248,634.471008 765.677795,630.179138 
	C767.019226,627.560425 768.768677,627.727539 771.019104,628.919128 
	C773.354431,630.155823 773.489258,631.722351 772.315308,633.835205 
	C771.266235,635.723022 770.364441,637.692505 769.393677,639.623901 
	C768.568176,641.266357 768.953552,642.398193 770.639099,643.271606 
	C772.317444,644.141235 773.771484,644.486328 774.896179,642.567200 
	C775.819946,640.990967 776.763306,639.419189 777.566101,637.780762 
	C778.688843,635.489380 780.035583,634.440674 782.668274,635.850586 
	C785.222107,637.218201 786.078613,638.783264 784.463196,641.417969 
	C783.597717,642.829590 783.037170,644.424683 782.226685,645.874207 
	C781.051758,647.975647 781.808533,649.319458 783.755554,650.303101 
	C785.619324,651.244812 787.468811,652.101624 788.892822,649.648315 
	C790.227661,647.348633 791.553467,645.043640 793.101501,642.473755 
z"/>
<path fill="#000000" opacity="1.000000" stroke="none" 
	d="
M627.072876,765.976562 
	C630.876465,764.183594 634.380432,762.634033 637.775818,760.874695 
	C640.244812,759.595398 641.715576,760.149597 642.912720,762.637634 
	C644.173889,765.258606 643.287842,766.657349 640.837952,767.658081 
	C639.148071,768.348450 637.532837,769.223083 635.890625,770.028381 
	C633.830017,771.039062 632.818909,772.323853 633.991760,774.789917 
	C635.192993,777.315552 636.722290,777.237488 638.795837,776.065430 
	C640.241211,775.248352 641.796997,774.629333 643.281067,773.877686 
	C645.588501,772.708923 646.992798,773.543640 648.029663,775.750183 
	C649.040100,777.900513 649.009277,779.574280 646.562195,780.618835 
	C645.798401,780.944885 645.058167,781.327209 644.313721,781.696899 
	C638.301941,784.681641 638.257385,784.865295 642.210510,791.062378 
	C645.386902,790.939941 647.909058,788.829224 650.734741,787.605774 
	C653.032104,786.611206 654.404968,786.954773 655.477600,789.336609 
	C656.527222,791.667114 656.700073,793.332336 653.942688,794.552429 
	C649.533020,796.503601 645.176331,798.587219 640.879883,800.777100 
	C638.052795,802.218079 636.738953,801.149170 635.538818,798.541687 
	C631.783325,790.382324 628.051453,782.197571 623.869629,774.254761 
	C621.656738,770.051758 621.938171,767.497864 627.072876,765.976562 
z"/>
<path fill="#000000" opacity="1.000000" stroke="none" 
	d="
M824.004578,496.159363 
	C824.517334,494.330627 824.837280,492.858673 824.322937,491.373596 
	C823.870850,490.068054 823.109741,488.974091 821.682739,488.608826 
	C820.127808,488.210754 819.054077,489.125916 818.376648,490.287720 
	C817.124878,492.434113 816.134277,494.731049 814.930664,496.907654 
	C811.868713,502.445099 807.462097,504.734924 802.287292,503.561188 
	C797.107422,502.386261 794.121155,498.404724 793.716064,492.133636 
	C793.532104,489.286377 793.877747,486.516815 794.651001,483.758453 
	C795.335083,481.318268 796.406067,479.876404 799.232239,480.771729 
	C801.739807,481.566101 803.535522,482.663879 802.345032,485.745972 
	C801.987366,486.672119 801.708679,487.646118 801.537903,488.623322 
	C801.201172,490.550629 801.411926,492.386536 803.465088,493.261169 
	C805.659912,494.196198 806.918091,492.771729 807.863770,491.090149 
	C809.247314,488.629974 810.369751,486.010986 811.884705,483.639343 
	C814.347534,479.783844 817.979248,478.098450 822.559570,478.765503 
	C826.979675,479.409241 829.659729,482.142151 831.086304,486.218475 
	C832.317261,489.735718 832.603088,493.377869 832.062805,497.046722 
	C831.179321,503.045624 829.674683,503.978210 823.146545,502.723328 
	C822.074707,500.520569 823.803528,498.616272 824.004578,496.159363 
z"/>
<path fill="#000000" opacity="1.000000" stroke="none" 
	d="
M530.429138,796.525574 
	C532.151550,799.183838 533.686646,801.521545 535.483215,804.257629 
	C537.902649,801.252930 538.573120,797.996521 539.803223,795.034851 
	C542.116089,789.466187 543.360046,788.854858 550.161316,790.591919 
	C548.847290,796.275818 546.169495,801.455872 543.776489,806.661316 
	C541.436096,811.752197 540.911377,816.707336 541.985535,822.141968 
	C542.897339,826.755371 540.563232,828.920349 536.257080,828.175964 
	C534.969238,827.953369 533.787476,827.447693 533.853210,826.127869 
	C534.491882,813.312439 525.507019,804.937744 519.685120,795.102905 
	C519.445984,794.698853 519.421143,794.167969 519.300720,793.712036 
	C525.053040,790.565247 526.672363,790.942139 530.429138,796.525574 
z"/>
<path fill="#000000" opacity="1.000000" stroke="none" 
	d="
M510.946777,461.501404 
	C513.601135,459.425049 511.928040,458.282043 510.441010,457.094971 
	C508.845062,455.821045 507.384247,454.496368 508.997833,451.503082 
	C513.145386,455.444489 517.864502,455.331787 522.610657,452.987701 
	C523.558655,457.227783 519.184875,456.968140 518.807739,459.675079 
	C519.910034,463.494171 524.785217,460.636963 526.632690,463.966248 
	C524.487671,466.004791 520.823181,466.757935 520.952881,470.984619 
	C521.001221,472.559052 514.356750,471.682343 512.888428,469.339050 
	C511.832703,467.654327 510.710541,466.501343 508.719849,466.222870 
	C507.156006,466.004120 504.921936,466.277710 505.187317,463.823395 
	C505.422455,461.649231 507.439301,461.795044 509.126495,461.800537 
	C509.620483,461.802155 510.114838,461.697632 510.946777,461.501404 
z"/>
</svg>